<?xml version="1.0" standalone="no"?>
<!DOCTYPE svg PUBLIC "-//W3C//DTD SVG 20010904//EN"
 "http://www.w3.org/TR/2001/REC-SVG-20010904/DTD/svg10.dtd">
<svg version="1.0" xmlns="http://www.w3.org/2000/svg"
 width="512.000000pt" height="512.000000pt" viewBox="0 0 512.000000 512.000000"
 preserveAspectRatio="xMidYMid meet">

<g transform="translate(0.000000,512.000000) scale(0.100000,-0.100000)"
fill="#000000" stroke="none">
<path d="M2330 5110 c-199 -18 -464 -78 -649 -146 -237 -88 -529 -254 -727
-414 -101 -82 -302 -283 -384 -384 -160 -198 -326 -490 -414 -727 -124 -336
-178 -742 -146 -1097 19 -216 76 -470 146 -661 88 -237 254 -529 414 -727 82
-101 283 -302 384 -384 198 -160 490 -326 727 -414 336 -124 742 -178 1097
-146 216 19 470 76 661 146 237 88 529 254 727 414 101 82 302 283 384 384
160 198 326 490 414 727 70 191 127 445 146 661 32 355 -22 761 -146 1097 -88
237 -254 529 -414 727 -82 101 -283 302 -384 384 -198 160 -490 326 -727 414
-337 124 -747 178 -1109 146z m-510 -1566 c116 -55 197 -161 220 -286 39 -210
-136 -425 -355 -436 -162 -9 -300 79 -373 236 -22 48 -27 71 -27 142 0 71 5
94 27 142 36 77 81 131 145 174 75 49 124 63 218 61 66 -2 91 -8 145 -33z
m1743 21 c104 -31 194 -113 245 -223 22 -48 27 -71 27 -142 0 -71 -5 -94 -27
-142 -119 -257 -429 -318 -621 -123 -203 207 -121 526 162 630 48 18 155 18
214 0z m427 -1521 c0 -16 -83 -197 -116 -255 -163 -277 -412 -503 -700 -632
-227 -102 -471 -144 -726 -126 -498 36 -944 318 -1202 758 -33 58 -116 239
-116 255 0 3 644 6 1430 6 787 0 1430 -3 1430 -6z"/>
</g>
</svg>
